<?xml version="1.0" encoding="utf-8"?>
<!-- Generator: Adobe Illustrator 26.5.0, SVG Export Plug-In . SVG Version: 6.00 Build 0)  -->
<svg version="1.1" id="Layer_1" xmlns="http://www.w3.org/2000/svg" xmlns:xlink="http://www.w3.org/1999/xlink" x="0px" y="0px"
	 viewBox="0 0 50 43.8" style="enable-background:new 0 0 50 43.8;" xml:space="preserve">
<path d="M25,43.8c-0.4,0-0.8-0.1-1-0.4L4,23.4c-2.6-2.6-4-6-4-9.7C0,6.2,6.2,0,13.7,0c3.7,0,7.1,1.4,9.7,4L25,5.6L26.6,4
	c2.6-2.6,6-4,9.7-4C43.8,0,50,6.2,50,13.7c0,3.7-1.4,7.1-4,9.7L26,43.4C25.7,43.7,25.4,43.8,25,43.8L25,43.8z M13.7,2.9
	c-6,0-10.8,4.8-10.8,10.8c0,2.9,1.1,5.6,3.2,7.6L25,40.3l18.9-18.9c2-2,3.2-4.8,3.2-7.6c0-6-4.8-10.8-10.8-10.8
	c-2.9,0-5.6,1.1-7.6,3.2L26,8.7c-0.6,0.6-1.5,0.6-2.1,0l-2.6-2.6C19.3,4,16.6,2.9,13.7,2.9L13.7,2.9z"/>
</svg>
