<?xml version="1.0" encoding="utf-8"?>
<!-- Generator: Adobe Illustrator 26.5.0, SVG Export Plug-In . SVG Version: 6.00 Build 0)  -->
<svg version="1.1" id="Layer_1" xmlns="http://www.w3.org/2000/svg" xmlns:xlink="http://www.w3.org/1999/xlink" x="0px" y="0px"
	 viewBox="0 0 300.2 300.1" style="enable-background:new 0 0 300.2 300.1;" xml:space="preserve">
<style type="text/css">
	.st0{fill:#010202;}
	.st1{fill:#F0EFF0;}
	.st2{fill:#E9E8EA;}
	.st3{fill:#030304;}
</style>
<g>
	<path class="st0" d="M300.4,63.9c-0.1,8.7-0.2,17.3-0.2,26c0,32.1,0,64.3,0,96.4c0,2.8-0.6,5.1-2.1,7.4
		c-22.1,34.1-44.1,68.3-66,102.6c-1.8,2.9-3.9,3.8-7.2,3.8c-42.1-0.1-84.2-0.1-126.4-0.1c-1.8,0-3.6,0.1-5.5,0.2
		c-28.8-0.1-57.6-0.2-86.4-0.1c-4.4,0-5.7-1-5.7-5.6c0.2-96.1,0.1-192.2,0-288.3c0-4.4,1-5.4,5.4-5.4c96.3,0.1,192.5,0.1,288.8,0
		c4.2,0,5.1,1,5.1,5.1C300.2,25.2,300.4,44.6,300.4,63.9z M171.7,129c0-5.8-0.3-10.2,0.1-14.5c0.3-3.6-1-5.5-4.3-6.7
		c-15.5-5.6-30.3-5-43.9,5c-1.3,1-2.1,1.7-3.7,0.3c-10.4-9.1-22.9-9.7-35.7-8c-10.2,1.4-18.7,5.8-22.7,16.2
		c-3.3,8.8-2.8,9.5,6.5,9.5c0.5,0,1-0.1,1.5,0c2.7,0.4,4.2-0.4,4.8-3.4c0.9-4.1,3.8-7,7.7-8.6c7.7-3.2,15.5-3.1,23.3-0.2
		c3.7,1.4,6,4,6.3,8.2c0.3,4.1-1.8,6.9-5.2,9c-3.3,2-7,3-10.7,3.9c-8.3,2.1-16.9,3.3-25,6.6c-8.5,3.4-14.3,9-14.7,18.7
		c-0.5,10.5,3.6,18.5,13,23.4c9.1,4.7,18.9,5.9,29.1,4.8c7.1-0.8,13.9-2.4,19.8-7.1c-2.5-2.9-4.9-5.6-6.7-8.8
		c-0.6-1.1-1.1-1.8-2.6-0.7c-7.4,5.4-15.9,5-24.4,4.2c-2.1-0.2-4.2-0.9-6.2-1.7c-4.7-1.7-7.3-5.3-7.5-10.2
		c-0.1-4.7,2.3-8.2,6.6-10.3c9.8-4.8,20.7-5.1,31-8.6c0.1,1.5,0.1,2.5,0.2,3.4c1.2,12.3,5.1,23.3,15,31.5
		c17.7,14.5,54.8,12.5,64.8-18.2c1.5-4.6,4.5-7.7,9-9.2c3-1,6-2,9-2.7c8.3-2.1,17-3.2,24.8-7c6.2-3,11-7.3,12.3-14.6
		c2.4-13.1-5-23.6-19.5-27.3c-10.9-2.7-21.7-1.9-32.7,2c0-7.8,0-15.3,0-22.7c0-10.6,0-10.4-10.6-10.7c-4.1-0.1-4.4,1.4-4.4,4.8
		c0.1,23.3,0,46.6,0.1,70c0,3.5-0.4,7-1.1,10.4c-2.7,12.5-12.1,21-24.1,21.5c-12.6,0.6-22.3-6.5-26.3-19.2c-2-6.3-2-12.8-1.4-19.3
		c1.6-16.8,13.3-27,29.3-25.9C160.5,117.4,166.4,121.8,171.7,129z M189.5,175.9c-1.6,2.2-3,5-5.1,7c-2.9,2.7-1.6,3.8,1.1,5.1
		c15,7.4,30.3,7.8,45.5,0.9c7-3.1,11.4-8.8,13.4-16.4c2-7.7,2.1-7.7-5.5-7.7c-1.3,0-2.7,0.1-4,0c-2.5-0.3-3.5,0.7-3.7,3.2
		c-0.5,4.9-3.5,8.5-7.8,10.3C212,183,200.6,183,189.5,175.9z"/>
	<path class="st1" d="M171.7,129c-5.4-7.3-11.2-11.6-19.2-12.2c-16-1.1-27.7,9-29.3,25.9c-0.6,6.4-0.6,12.9,1.4,19.3
		c4,12.7,13.7,19.8,26.3,19.2c11.9-0.5,21.4-9,24.1-21.5c0.7-3.4,1.1-6.9,1.1-10.4c-0.1-23.3,0-46.6-0.1-70c0-3.4,0.3-4.9,4.4-4.8
		c10.6,0.3,10.6,0,10.6,10.7c0,7.5,0,14.9,0,22.7c11-3.9,21.8-4.7,32.7-2c14.5,3.6,21.9,14.2,19.5,27.3c-1.3,7.3-6.1,11.6-12.3,14.6
		c-7.9,3.8-16.5,4.9-24.8,7c-3,0.8-6,1.7-9,2.7c-4.5,1.5-7.5,4.6-9,9.2c-10,30.8-47.1,32.8-64.8,18.2c-9.9-8.1-13.8-19.2-15-31.5
		c-0.1-1-0.1-2-0.2-3.4c-10.3,3.5-21.2,3.9-31,8.6c-4.3,2.1-6.8,5.5-6.6,10.3c0.1,4.9,2.8,8.4,7.5,10.2c2,0.7,4.1,1.4,6.2,1.7
		c8.5,0.8,17,1.3,24.4-4.2c1.5-1.1,2-0.3,2.6,0.7c1.7,3.2,4.2,5.9,6.7,8.8c-5.9,4.7-12.7,6.3-19.8,7.1c-10.1,1.1-20-0.1-29.1-4.8
		c-9.4-4.9-13.5-12.8-13-23.4c0.5-9.8,6.3-15.3,14.7-18.7c8-3.3,16.6-4.5,25-6.6c3.7-0.9,7.4-1.9,10.7-3.9c3.3-2.1,5.4-4.9,5.2-9
		c-0.3-4.1-2.6-6.8-6.3-8.2c-7.8-2.9-15.6-3-23.3,0.2c-3.9,1.6-6.8,4.5-7.7,8.6c-0.7,3-2.1,3.8-4.8,3.4c-0.5-0.1-1,0-1.5,0
		c-9.3,0-9.8-0.7-6.5-9.5c3.9-10.4,12.5-14.8,22.7-16.2c12.8-1.8,25.3-1.1,35.7,8c1.6,1.4,2.4,0.7,3.7-0.3c13.7-10,28.4-10.5,43.9-5
		c3.3,1.2,4.6,3.1,4.3,6.7C171.5,118.9,171.7,123.2,171.7,129z M191,135.2c0,2.7,0.1,4.4,0,6c-0.2,2.8,0,4.3,3.7,3
		c4.8-1.6,10-2.3,14.9-3.6c5.3-1.3,10.7-2.3,15.3-5.5c5.6-4,6-11.5,0.3-15c-8.4-5.1-17.5-4.8-26.2-1.1
		C191.7,122.3,190.3,128.9,191,135.2z"/>
	<path class="st2" d="M189.5,175.9c11.1,7.1,22.5,7.1,33.9,2.4c4.2-1.7,7.2-5.4,7.8-10.3c0.3-2.5,1.2-3.5,3.7-3.2c1.3,0.2,2.7,0,4,0
		c7.6,0,7.5,0,5.5,7.7c-2,7.6-6.4,13.3-13.4,16.4c-15.2,6.9-30.5,6.5-45.5-0.9c-2.7-1.3-4-2.4-1.1-5.1
		C186.5,180.9,187.9,178.1,189.5,175.9z"/>
	<path class="st3" d="M191,135.2c-0.8-6.3,0.6-12.9,8-16.1c8.7-3.8,17.9-4,26.2,1.1c5.7,3.5,5.3,11-0.3,15c-4.6,3.3-10,4.2-15.3,5.5
		c-5,1.3-10.1,1.9-14.9,3.6c-3.7,1.3-3.9-0.2-3.7-3C191.1,139.6,191,137.9,191,135.2z"/>
</g>
</svg>
