<?xml version="1.0" encoding="utf-8"?>
<!-- Generator: Adobe Illustrator 26.5.0, SVG Export Plug-In . SVG Version: 6.00 Build 0)  -->
<svg version="1.1" id="Layer_1" xmlns="http://www.w3.org/2000/svg" xmlns:xlink="http://www.w3.org/1999/xlink" x="0px" y="0px"
	 viewBox="0 0 399.5 350" style="enable-background:new 0 0 399.5 350;" xml:space="preserve">
<path d="M199.7,350c-3,0-6-1.1-8.3-3.4L32.1,187.2C11.4,166.5,0,139,0,109.7C0,49.2,49.2,0,109.7,0c29.3,0,56.8,11.4,77.6,32.1
	l12.6,12.6l12.6-12.6C233,11.4,260.5,0,289.8,0c60.5,0,109.7,49.2,109.7,109.7c0,29.3-11.4,56.8-32.1,77.6L208,346.6
	C205.7,348.9,202.7,350,199.7,350L199.7,350z M109.7,23.3c-47.6,0-86.3,38.7-86.3,86.3c0,23.1,9,44.8,25.3,61l151.1,151.1
	l151.1-151.1c16.3-16.3,25.2-38,25.2-61c0-47.6-38.7-86.3-86.3-86.3c-23.1,0-44.8,9-61,25.3l-20.8,20.8c-4.6,4.6-11.9,4.6-16.5,0
	l-20.8-20.8C154.4,32.3,132.7,23.3,109.7,23.3L109.7,23.3z"/>
</svg>
