<?xml version="1.0" encoding="utf-8"?>
<!-- Generator: Adobe Illustrator 26.5.0, SVG Export Plug-In . SVG Version: 6.00 Build 0)  -->
<svg version="1.1" id="Layer_1" xmlns="http://www.w3.org/2000/svg" xmlns:xlink="http://www.w3.org/1999/xlink" x="0px" y="0px"
	 viewBox="0 0 490.7 490.7" style="enable-background:new 0 0 490.7 490.7;" xml:space="preserve">
<path d="M362.3,337.5c34.1-40.5,51.2-92.6,47.9-145.4c-3.4-52.8-27-102.3-66-138.1c-39-35.8-90.3-55.2-143.2-54
	C148,1.2,97.6,22.7,60.1,60.1C22.7,97.6,1.2,148,0,200.9c-1.1,52.9,18.2,104.2,54,143.2c35.8,39,85.3,62.6,138.1,66
	c52.8,3.4,104.9-13.8,145.4-47.9L461,485.8c4.4,4.3,10.8,5.9,16.8,4.3c6-1.6,10.6-6.3,12.2-12.2c1.6-6,0-12.3-4.3-16.8L362.3,337.5z
	 M35.9,205.7c0-45,17.9-88.3,49.8-120.1c31.9-31.9,75.1-49.8,120.1-49.8S294,53.8,325.8,85.6c31.9,31.9,49.8,75.1,49.8,120.1
	s-17.9,88.2-49.8,120.1c-31.9,31.9-75.1,49.8-120.1,49.8c-45-0.1-88.2-18-120-49.8C53.8,293.9,35.9,250.8,35.9,205.7L35.9,205.7z"/>
</svg>
