<?xml version="1.0" encoding="utf-8"?>
<!-- Generator: Adobe Illustrator 26.5.0, SVG Export Plug-In . SVG Version: 6.00 Build 0)  -->
<svg version="1.1" id="Layer_1" xmlns="http://www.w3.org/2000/svg" xmlns:xlink="http://www.w3.org/1999/xlink" x="0px" y="0px"
	 viewBox="0 0 448 220.4" style="enable-background:new 0 0 448 220.4;" xml:space="preserve">
<style type="text/css">
	.st0{fill-rule:evenodd;clip-rule:evenodd;}
</style>
<g>
	<path class="st0" d="M12.3,179.3h423.4c6.8,0,12.3,5.5,12.3,12.3v16.4c0,6.8-5.5,12.3-12.3,12.3H12.3c-6.8,0-12.3-5.5-12.3-12.3
		v-16.4C0,184.8,5.5,179.3,12.3,179.3z"/>
	<path class="st0" d="M12.3,0h423.4c6.8,0,12.3,5.5,12.3,12.3v16.4c0,6.8-5.5,12.3-12.3,12.3H12.3C5.5,41,0,35.5,0,28.7V12.3
		C0,5.5,5.5,0,12.3,0z"/>
</g>
</svg>
